<svg width="24.999878" height="24.999878" viewBox="0 0 24.9999 24.9999" fill="none" xmlns="http://www.w3.org/2000/svg" xmlns:xlink="http://www.w3.org/1999/xlink">
	<desc>
			Created with Pixso.
	</desc>
	<defs/>
	<path id="Path 35758" d="M7.2 0.21C5.97 -0.08 4.69 -0.08 3.46 0.21C2.67 0.4 1.95 0.8 1.37 1.37C0.8 1.95 0.4 2.67 0.21 3.46C-0.08 4.69 -0.08 5.97 0.21 7.2C0.4 8 0.8 8.72 1.37 9.29C1.95 9.87 2.67 10.27 3.46 10.45C4.69 10.74 5.97 10.74 7.2 10.45C8 10.27 8.72 9.87 9.29 9.29C9.87 8.72 10.27 8 10.45 7.2C10.74 5.97 10.74 4.69 10.45 3.46C10.27 2.67 9.87 1.95 9.29 1.37C8.72 0.8 8 0.4 7.2 0.21Z" fill="#FFFFFF" fill-opacity="1.000000" fill-rule="nonzero"/>
	<path id="Path 35759" d="M7.2 14.54C5.97 14.25 4.69 14.25 3.46 14.54C2.67 14.72 1.95 15.12 1.37 15.7C0.8 16.27 0.4 16.99 0.21 17.79C-0.08 19.02 -0.08 20.3 0.21 21.53C0.4 22.32 0.8 23.04 1.37 23.62C1.95 24.19 2.67 24.59 3.46 24.78C4.69 25.07 5.97 25.07 7.2 24.78C8 24.59 8.72 24.19 9.29 23.62C9.87 23.04 10.27 22.32 10.45 21.53C10.74 20.3 10.74 19.02 10.45 17.79C10.27 16.99 9.87 16.27 9.29 15.7C8.72 15.12 8 14.72 7.2 14.54Z" fill="#FFFFFF" fill-opacity="1.000000" fill-rule="nonzero"/>
	<path id="Path 35760" d="M21.53 0.21C20.3 -0.08 19.02 -0.08 17.79 0.21C16.99 0.4 16.27 0.8 15.7 1.37C15.12 1.95 14.72 2.67 14.54 3.46C14.25 4.69 14.25 5.97 14.54 7.2C14.72 8 15.12 8.72 15.7 9.29C16.27 9.87 16.99 10.27 17.79 10.45C19.02 10.74 20.3 10.74 21.53 10.45C22.32 10.27 23.04 9.87 23.62 9.29C24.19 8.72 24.59 8 24.78 7.2C25.07 5.97 25.07 4.69 24.78 3.46C24.59 2.67 24.19 1.95 23.62 1.37C23.04 0.8 22.32 0.4 21.53 0.21Z" fill="#FFFFFF" fill-opacity="1.000000" fill-rule="nonzero"/>
	<path id="Path 35761" d="M21.53 14.54C20.3 14.25 19.02 14.25 17.79 14.54C16.99 14.72 16.27 15.12 15.7 15.7C15.12 16.27 14.72 16.99 14.54 17.79C14.25 19.02 14.25 20.3 14.54 21.53C14.72 22.32 15.12 23.04 15.7 23.62C16.27 24.19 16.99 24.59 17.79 24.78C19.02 25.07 20.3 25.07 21.53 24.78C22.32 24.59 23.04 24.19 23.62 23.62C24.19 23.04 24.59 22.32 24.78 21.53C25.07 20.3 25.07 19.02 24.78 17.79C24.59 16.99 24.19 16.27 23.62 15.7C23.04 15.12 22.32 14.72 21.53 14.54Z" fill="#FFFFFF" fill-opacity="1.000000" fill-rule="nonzero"/>
</svg>
