<svg width="25.005493" height="26.471680" viewBox="0 0 25.0055 26.4717" fill="none" xmlns="http://www.w3.org/2000/svg" xmlns:xlink="http://www.w3.org/1999/xlink">
	<desc>
			Created with Pixso.
	</desc>
	<defs/>
	<path id="Path 35757" d="M18.84 0.63C14.65 -0.22 10.34 -0.22 6.16 0.63C4.85 0.9 3.65 1.53 2.69 2.45C1.73 3.37 1.04 4.54 0.7 5.82L0.63 6.05C-0.22 9.18 -0.22 12.49 0.63 15.62L0.7 15.85C1.04 17.13 1.73 18.3 2.69 19.21C3.65 20.13 4.85 20.76 6.15 21.04C7.91 21.39 9.69 21.6 11.48 21.65L11.48 24.38L9.13 24.38C8.86 24.38 8.59 24.49 8.39 24.69C8.2 24.88 8.09 25.15 8.09 25.42C8.09 25.7 8.2 25.97 8.39 26.16C8.59 26.36 8.86 26.47 9.13 26.47L15.86 26.47C16.14 26.47 16.41 26.36 16.6 26.16C16.8 25.97 16.91 25.7 16.91 25.42C16.91 25.15 16.8 24.88 16.6 24.69C16.41 24.49 16.14 24.38 15.86 24.38L13.51 24.38L13.51 21.66C15.3 21.6 17.08 21.39 18.84 21.04C20.14 20.76 21.34 20.13 22.31 19.22C23.27 18.3 23.96 17.13 24.3 15.85L24.36 15.62C25.21 12.49 25.21 9.18 24.36 6.05L24.3 5.82C23.96 4.54 23.27 3.37 22.31 2.45C21.34 1.54 20.14 0.9 18.84 0.63L18.84 0.63ZM15.51 12.5L15.54 12.46L17.75 10.41C17.91 10.26 18 10.05 18.02 9.84C18.03 9.62 17.95 9.4 17.81 9.24C17.74 9.15 17.66 9.09 17.56 9.04C17.46 8.99 17.36 8.97 17.25 8.96C17.15 8.96 17.04 8.97 16.94 9.01C16.84 9.04 16.75 9.1 16.67 9.17L14.46 11.23C14.31 11.37 14.16 11.51 14 11.64C13.88 11.47 13.76 11.3 13.65 11.12L12.69 9.63L12.66 9.59C12.5 9.32 12.32 9.07 12.13 8.83C11.9 8.54 11.57 8.35 11.21 8.29C10.84 8.25 10.48 8.35 10.19 8.58C9.94 8.76 9.71 8.96 9.49 9.18L9.45 9.21L7.25 11.26C7.09 11.41 6.99 11.62 6.98 11.83C6.97 12.05 7.04 12.27 7.19 12.43C7.26 12.52 7.34 12.58 7.44 12.63C7.53 12.68 7.64 12.7 7.74 12.71C7.85 12.72 7.96 12.7 8.06 12.66C8.16 12.63 8.25 12.57 8.33 12.5L10.54 10.45C10.75 10.25 10.89 10.12 11 10.03C11.08 10.14 11.18 10.3 11.34 10.55L12.31 12.05L12.33 12.09C12.5 12.35 12.68 12.61 12.87 12.85C13.1 13.14 13.43 13.33 13.79 13.39C14.15 13.42 14.52 13.32 14.81 13.1C15.05 12.91 15.29 12.71 15.51 12.5Z" fill="#FFFFFF" fill-opacity="1.000000" fill-rule="evenodd"/>
</svg>
