<svg width="24.000000" height="24.000000" viewBox="0 0 24 24" fill="none" xmlns="http://www.w3.org/2000/svg" xmlns:xlink="http://www.w3.org/1999/xlink">
	<desc>
			Created with Pixso.
	</desc>
	<defs>
		<clipPath id="clip143_143">
			<rect id="heroicons-solid/bell-alert" rx="-0.500000" width="23.000000" height="23.000000" transform="translate(0.500000 0.500000)" fill="white" fill-opacity="0"/>
		</clipPath>
	</defs>
	<g clip-path="url(#clip143_143)">
		<path id="Union" d="M5.25 8.99C5.25 5.27 8.27 2.25 12 2.25C15.72 2.25 18.75 5.27 18.75 9L18.74 9.04L18.74 9.75C18.74 11.87 19.55 13.8 20.86 15.26C21.03 15.45 21.09 15.71 21.03 15.95C20.97 16.19 20.8 16.38 20.57 16.47C19.02 17.04 17.41 17.46 15.73 17.71C15.74 17.81 15.75 17.9 15.75 18C15.75 20.07 14.07 21.75 12 21.75C9.92 21.75 8.25 20.07 8.25 18C8.25 17.9 8.25 17.81 8.26 17.71C6.58 17.46 4.97 17.04 3.42 16.47C3.19 16.38 3.01 16.19 2.96 15.95C2.9 15.71 2.96 15.45 3.13 15.26C4.44 13.8 5.24 11.87 5.24 9.75L5.25 8.99ZM5.85 3.5C6.12 3.19 6.1 2.71 5.79 2.44C5.48 2.16 5 2.19 4.73 2.49C3.53 3.84 2.69 5.51 2.38 7.37C2.31 7.78 2.59 8.17 3 8.23C3.4 8.3 3.79 8.03 3.86 7.62C4.12 6.05 4.83 4.63 5.85 3.5ZM19.26 2.49C18.99 2.19 18.51 2.16 18.2 2.44C17.89 2.71 17.87 3.19 18.14 3.5C19.16 4.63 19.87 6.05 20.13 7.62C20.2 8.03 20.59 8.3 20.99 8.23C21.4 8.17 21.68 7.78 21.61 7.37C21.3 5.51 20.46 3.84 19.26 2.49ZM9.75 17.89C9.75 17.93 9.75 17.96 9.75 18C9.75 19.24 10.75 20.25 12 20.25C13.24 20.25 14.25 19.24 14.25 18C14.25 17.96 14.24 17.93 14.24 17.89C13.5 17.96 12.75 18 11.99 18C11.24 18 10.49 17.96 9.75 17.89Z" fill="#FFFFFF" fill-opacity="1.000000" fill-rule="evenodd"/>
	</g>
</svg>
