<svg width="24.000000" height="24.000000" viewBox="0 0 24 24" fill="none" xmlns="http://www.w3.org/2000/svg" xmlns:xlink="http://www.w3.org/1999/xlink">
	<desc>
			Created with Pixso.
	</desc>
	<defs/>
	<path id="Subtract" d="M11.78 0C10.66 0 9.69 0.81 9.51 1.92L9.39 2.6C9.34 2.95 9.09 3.22 8.76 3.35C8.56 3.42 8.36 3.5 8.17 3.59C7.85 3.74 7.48 3.72 7.19 3.51L6.63 3.11C5.71 2.46 4.46 2.56 3.66 3.36L3.36 3.66C2.56 4.46 2.46 5.71 3.11 6.63L3.51 7.19C3.72 7.48 3.74 7.85 3.59 8.17C3.5 8.36 3.42 8.56 3.35 8.76C3.22 9.09 2.95 9.34 2.6 9.39L1.92 9.51C0.81 9.69 0 10.66 0 11.78L0 12.21C0 13.33 0.81 14.3 1.92 14.48L2.6 14.6C2.95 14.65 3.22 14.9 3.35 15.23C3.42 15.43 3.5 15.63 3.59 15.82C3.74 16.14 3.72 16.51 3.51 16.8L3.11 17.36C2.46 18.28 2.56 19.53 3.36 20.33L3.66 20.63C4.46 21.43 5.71 21.53 6.63 20.88L7.19 20.48C7.48 20.27 7.85 20.25 8.17 20.4C8.36 20.49 8.56 20.57 8.76 20.64C9.09 20.77 9.34 21.04 9.39 21.39L9.51 22.07C9.69 23.18 10.66 24 11.78 24L12.21 24C13.33 24 14.3 23.18 14.48 22.07L14.6 21.39C14.65 21.04 14.9 20.77 15.23 20.64C15.43 20.57 15.63 20.49 15.82 20.4C16.14 20.25 16.51 20.27 16.8 20.48L17.36 20.88C18.28 21.53 19.53 21.43 20.33 20.63L20.63 20.33C21.43 19.53 21.53 18.28 20.88 17.36L20.48 16.8C20.27 16.51 20.25 16.14 20.4 15.82C20.49 15.63 20.57 15.43 20.64 15.23C20.77 14.9 21.04 14.65 21.39 14.6L22.07 14.48C23.18 14.3 24 13.33 24 12.21L24 11.78C24 10.66 23.18 9.69 22.07 9.51L21.39 9.39C21.04 9.34 20.77 9.09 20.64 8.76C20.57 8.56 20.49 8.36 20.4 8.17C20.25 7.85 20.27 7.48 20.48 7.19L20.88 6.63C21.53 5.71 21.43 4.46 20.63 3.66L20.33 3.36C19.53 2.56 18.28 2.46 17.36 3.11L16.8 3.51C16.51 3.72 16.14 3.74 15.82 3.59C15.63 3.5 15.43 3.42 15.23 3.35C14.9 3.22 14.65 2.95 14.6 2.6L14.48 1.92C14.3 0.81 13.33 0 12.21 0L11.78 0ZM12 16.61C14.54 16.61 16.61 14.54 16.61 12C16.61 9.45 14.54 7.38 12 7.38C9.45 7.38 7.38 9.45 7.38 12C7.38 14.54 9.45 16.61 12 16.61Z" fill="#FFFFFF" fill-opacity="1.000000" fill-rule="evenodd"/>
</svg>
