<svg width="14" height="15" viewBox="0 0 14 15" fill="none" xmlns="http://www.w3.org/2000/svg">
<path d="M13.4409 6.17301L10.1589 12.0691C9.57858 13.1117 8.54947 13.8285 7.29794 14.0619C6.04642 14.2954 4.675 14.0263 3.48539 13.3139C2.29577 12.6016 1.38541 11.5042 0.954566 10.2633C0.523724 9.02237 0.607695 7.73954 1.188 6.69701L3.15748 3.15882C3.22045 3.06384 3.32282 3.00078 3.44385 2.98241C3.56489 2.96404 3.69554 2.99174 3.80934 3.05989C3.92315 3.12804 4.0116 3.23156 4.05678 3.34946C4.10196 3.46736 4.1005 3.59085 4.05268 3.6949L2.0832 7.23309C1.84296 7.6457 1.69915 8.11234 1.66015 8.60581C1.62116 9.09928 1.68777 9.60969 1.8561 10.1073C2.02443 10.6049 2.29111 11.0798 2.64059 11.5042C2.99007 11.9286 3.41536 12.2941 3.89167 12.5793C4.36798 12.8645 4.88578 13.0638 5.41488 13.1655C5.94398 13.2672 6.47379 13.2694 6.97344 13.1718C7.47308 13.0742 7.93256 12.8788 8.32508 12.597C8.71761 12.3153 9.03533 11.9528 9.25972 11.5307L12.5417 5.63455C12.6936 5.37675 12.785 5.08477 12.8105 4.77572C12.836 4.46667 12.7952 4.14677 12.6904 3.83477C12.5856 3.52277 12.4189 3.22495 12.2001 2.95877C11.9814 2.69258 11.7149 2.46338 11.4164 2.28462C11.1179 2.10585 10.7933 1.9811 10.4617 1.91769C10.13 1.85428 9.79802 1.85348 9.48512 1.91534C9.17221 1.9772 8.88469 2.10047 8.63942 2.27793C8.39414 2.45539 8.19605 2.68347 8.05674 2.94879L5.21243 8.05863C5.09661 8.2667 5.07985 8.52273 5.16584 8.77039C5.25183 9.01805 5.43352 9.23706 5.67094 9.37923C5.90836 9.52141 6.18206 9.57511 6.43184 9.52852C6.68162 9.48193 6.88701 9.33886 7.00283 9.13079L9.40996 4.80634C9.43577 4.75018 9.4743 4.70142 9.52317 4.66308C9.57203 4.62474 9.63019 4.59765 9.69404 4.58347C9.75788 4.56928 9.82606 4.56832 9.89433 4.58064C9.96261 4.59296 10.0295 4.6183 10.091 4.65508C10.1524 4.69187 10.207 4.73931 10.2514 4.79448C10.2958 4.84965 10.3291 4.91137 10.3492 4.97581C10.3693 5.04025 10.3758 5.10604 10.3682 5.1691C10.3606 5.23217 10.3391 5.29116 10.3052 5.34242L7.89851 9.666C7.66636 10.0831 7.25467 10.3698 6.754 10.4632C6.25334 10.5566 5.70471 10.449 5.22881 10.164C4.75291 9.879 4.38873 9.44001 4.21637 8.94359C4.04402 8.44717 4.07761 7.93398 4.30976 7.51692L7.15358 2.40795C7.34958 2.03805 7.62742 1.72031 7.97086 1.47328C8.3143 1.22624 8.71646 1.05487 9.15388 0.969151C9.5913 0.883436 10.0552 0.885099 10.5185 0.974044C10.9818 1.06299 11.4352 1.23743 11.8523 1.48719C12.2694 1.73695 12.6418 2.05702 12.9477 2.42872C13.2536 2.80042 13.4869 3.21629 13.6341 3.65206C13.7812 4.08784 13.8392 4.53477 13.8047 4.96679C13.7701 5.3988 13.6438 5.80724 13.4329 6.16824L13.4409 6.17301Z" fill="white"/>
</svg>
