<svg width="33.000000" height="33.000000" viewBox="0 0 33 33" fill="none" xmlns="http://www.w3.org/2000/svg" xmlns:xlink="http://www.w3.org/1999/xlink">
	<desc>
			Created with Pixso.
	</desc>
	<defs/>
	<rect id="Frame 22" rx="16.000000" width="32.000000" height="32.000000" transform="translate(0.500000 0.500000)" fill="#2E2E2E" fill-opacity="1.000000"/>
	<path id="Union" d="M7.5 12.6C7.5 11.16 8.65 10 10.07 10L17.14 10C18.56 10 19.71 11.16 19.71 12.6L19.71 20.4C19.71 21.83 18.56 23 17.14 23L10.07 23C8.65 23 7.5 21.83 7.5 20.4L7.5 12.6ZM21 20.01L23.3 22.35C24.11 23.16 25.5 22.58 25.5 21.43L25.5 11.56C25.5 10.41 24.11 9.83 23.3 10.65L21 12.98L21 20.01Z" fill="#FFFFFF" fill-opacity="1.000000" fill-rule="evenodd"/>
</svg>
