<svg width="25.000000" height="23.214355" viewBox="0 0 25 23.2144" fill="none" xmlns="http://www.w3.org/2000/svg" xmlns:xlink="http://www.w3.org/1999/xlink">
	<desc>
			Created with Pixso.
	</desc>
	<defs/>
	<path id="Union" d="M11.6 0C9.05 0 6.53 0.16 4.06 0.48C1.67 0.79 0 2.87 0 5.22L0 12.63C0 14.98 1.67 17.06 4.06 17.37C4.49 17.42 4.92 17.47 5.35 17.52L5.35 22.32C5.35 22.68 5.57 23 5.9 23.14C6.24 23.28 6.62 23.2 6.88 22.95L10.03 19.79C8.27 18.9 7.14 17.06 7.14 15.05L7.14 9.95C7.14 7.27 9.14 4.9 11.95 4.67C13.6 4.53 15.27 4.46 16.96 4.46C18.65 4.46 20.32 4.53 21.97 4.67C22.4 4.7 22.81 4.79 23.2 4.92C23.06 2.7 21.43 0.78 19.15 0.48C16.68 0.16 14.16 0 11.6 0ZM12.1 6.45C13.7 6.31 15.32 6.25 16.96 6.25C18.6 6.25 20.22 6.31 21.82 6.45C23.66 6.6 25 8.15 25 9.95L25 15.05C25 16.84 23.65 18.4 21.82 18.55C21.69 18.56 21.55 18.57 21.42 18.58L21.42 21.42C21.42 21.78 21.21 22.11 20.87 22.25C20.54 22.39 20.15 22.31 19.9 22.05L16.59 18.74C15.08 18.73 13.58 18.67 12.1 18.55C10.27 18.4 8.92 16.84 8.92 15.05L8.92 9.95C8.92 8.15 10.26 6.6 12.1 6.45Z" fill="#FFFFFF" fill-opacity="1.000000" fill-rule="evenodd"/>
</svg>
