<svg width="34.000000" height="34.000000" viewBox="0 0 34 34" fill="none" xmlns="http://www.w3.org/2000/svg" xmlns:xlink="http://www.w3.org/1999/xlink">
	<desc>
			Created with Pixso.
	</desc>
	<defs/>
	<rect id="Frame 21" rx="16.500000" width="33.000000" height="33.000000" transform="translate(0.500000 0.500000)" fill="#2E2E2E" fill-opacity="1.000000"/>
	<path id="Vector (Stroke)" d="M8 10.57C8 9.15 9.15 8 10.57 8L11.74 8C12.48 8 13.12 8.5 13.3 9.21L14.25 13C14.41 13.63 14.17 14.29 13.65 14.68L12.55 15.51C12.43 15.6 12.41 15.72 12.44 15.81C13.41 18.47 15.52 20.58 18.18 21.55C18.27 21.58 18.39 21.56 18.48 21.44L19.31 20.34C19.7 19.82 20.36 19.58 20.99 19.74L24.78 20.69C25.49 20.87 26 21.51 26 22.25L26 23.42C26 24.84 24.84 26 23.42 26L21.5 26C14.04 26 8 19.95 8 12.5L8 10.57Z" fill="#FFFFFF" fill-opacity="1.000000" fill-rule="evenodd"/>
</svg>
